<?xml version="1.0" standalone="no"?>
<!DOCTYPE svg PUBLIC "-//W3C//DTD SVG 20010904//EN"
 "http://www.w3.org/TR/2001/REC-SVG-20010904/DTD/svg10.dtd">
<svg version="1.0" xmlns="http://www.w3.org/2000/svg"
 width="22.000000pt" height="22.000000pt" viewBox="0 0 512.000000 512.000000"
 preserveAspectRatio="xMidYMid meet">

<g transform="translate(0.000000,512.000000) scale(0.100000,-0.100000)"
fill="#fff" stroke="none">
<path d="M2898 5107 c-39 -17 -1663 -1492 -1677 -1523 -16 -36 -16 -2012 0
-2048 19 -41 1642 -1509 1687 -1525 80 -29 170 19 191 103 15 63 16 4833 0
4891 -25 90 -119 138 -201 102z"/>
<path d="M4120 4179 c-68 -27 -110 -107 -91 -174 5 -20 32 -66 59 -103 378
-510 522 -1163 396 -1792 -62 -309 -208 -639 -396 -892 -27 -37 -54 -83 -59
-103 -28 -102 69 -201 177 -180 48 9 96 59 187 196 231 349 368 716 419 1119
17 133 16 505 -1 630 -60 443 -225 852 -484 1204 -68 93 -135 123 -207 95z"/>
<path d="M3553 3739 c-66 -32 -102 -124 -72 -182 7 -12 45 -72 85 -132 118
-178 189 -347 235 -565 33 -151 33 -447 0 -600 -46 -217 -117 -387 -235 -565
-40 -60 -78 -120 -85 -132 -30 -58 7 -150 73 -182 51 -25 73 -26 126 -5 84 34
262 328 348 575 176 504 117 1100 -154 1552 -142 237 -214 289 -321 236z"/>
<path d="M709 3417 c-96 -40 -191 -83 -210 -95 -49 -30 -132 -120 -158 -170
-48 -94 -51 -128 -51 -592 0 -464 3 -498 51 -592 27 -53 112 -143 164 -174 43
-25 378 -164 395 -164 7 0 10 315 10 930 0 738 -3 930 -12 930 -7 -1 -92 -33
-189 -73z"/>
</g>
</svg>
