<?xml version="1.0" standalone="no"?>
<!DOCTYPE svg PUBLIC "-//W3C//DTD SVG 20010904//EN"
 "http://www.w3.org/TR/2001/REC-SVG-20010904/DTD/svg10.dtd">
<svg version="1.0" xmlns="http://www.w3.org/2000/svg"
 width="22.000000pt" height="22.000000pt" viewBox="0 0 225.000000 225.000000"
 preserveAspectRatio="xMidYMid meet">

<g transform="translate(0.000000,225.000000) scale(0.100000,-0.100000)"
fill="#fff" stroke="none">
<path d="M2035 2215 c-27 -7 -85 -22 -127 -34 -43 -11 -111 -30 -150 -40 -40
-11 -149 -40 -243 -66 -93 -25 -201 -55 -240 -65 -38 -10 -106 -28 -150 -40
-44 -11 -122 -31 -173 -44 -147 -37 -132 43 -132 -687 0 -345 -4 -630 -8 -633
-5 -3 -28 6 -52 20 -108 61 -258 79 -385 45 -96 -26 -145 -52 -202 -109 -68
-68 -103 -141 -103 -219 0 -34 3 -63 8 -65 4 -1 18 -23 31 -48 44 -83 116
-143 220 -183 47 -18 76 -22 182 -22 69 0 137 5 150 11 169 76 234 134 271
244 9 25 14 243 17 769 l6 735 30 8 c50 15 464 127 565 154 52 13 127 33 165
43 39 11 115 31 170 46 55 15 109 28 120 29 20 1 20 -6 23 -586 1 -324 -1
-588 -4 -588 -4 0 -35 13 -68 29 -137 64 -304 62 -444 -6 -90 -44 -141 -91
-178 -165 -89 -177 50 -392 284 -438 94 -19 244 -9 312 21 150 64 229 160 233
282 1 28 1 394 -1 813 -1 590 -5 764 -14 777 -19 23 -56 28 -113 12z"/>
</g>
</svg>
